<svg xmlns="http://www.w3.org/2000/svg" width="553" height="189" viewBox="0 0 553 189"><defs><style>.a,.c{fill:none;}.a{stroke:#7166f9;stroke-linecap:round;stroke-width:6px;opacity:0.3;}.b{fill:#423f62;font-family:Roboto-Regular, Roboto;}.b,.h{font-size:16px;}.d{fill:#2e384d;}.e,.m{fill:#7166f9;}.f{fill:#5851b4;}.f,.g{stroke:#2a2753;stroke-width:3px;}.g,.h{fill:#4cd7f6;}.h{font-family:Roboto-Medium, Roboto;font-weight:500;}.i{fill:#d1cef5;}.j{fill:#c6c3eb;}.k,.o{fill:#fff;}.k{opacity:0.824;}.l{opacity:0.394;}.m{opacity:0.086;}.n{fill:#2f2d46;}.p{stroke:none;}</style></defs><g transform="translate(-319 -550)"><line class="a" x2="547" transform="translate(322 689.5)"/><text class="b" transform="translate(351.5 735)"><tspan x="0" y="0">Upload</tspan></text><g transform="translate(336.5 550)"><rect class="c" width="80" height="80"/><g transform="translate(12 9)"><path class="d" d="M12563.99,9534.353h-18.07a5.89,5.89,0,0,1-5.921-5.93v-41.434a5.987,5.987,0,0,1,1.724-4.231,5.847,5.847,0,0,1,4.2-1.759h21.91l1.493,9.9,12.355,4.616v13.474l-.037-.007a21.493,21.493,0,0,0-2.419-.177,17.149,17.149,0,0,0-10.161,3.291,1.388,1.388,0,0,0-.151-.007h-19.183a1.363,1.363,0,1,0,0,2.716h16.39a17.188,17.188,0,0,0-2.742,4.322,1.319,1.319,0,0,0-.54-.113h-13.225a1.357,1.357,0,0,0,0,2.715h12.859a17.438,17.438,0,0,0,1.52,12.623Zm-14.38-29.05a1.356,1.356,0,1,0,0,2.713h13.755a1.356,1.356,0,1,0,0-2.713Z" transform="translate(-12540 -9481.001)"/><path class="e" d="M285.277.141l13.807,14.5h-9.191a4.612,4.612,0,0,1-4.616-4.616Zm0,0" transform="translate(-257.447 -0.127)"/><path class="e" d="M8448.934,9511.88a15.44,15.44,0,0,1,0-30.88,18.387,18.387,0,0,1,2.156.157,15.437,15.437,0,0,1-2.156,30.723Zm-1.2-20.47v13.218a1.21,1.21,0,1,0,2.421,0V9491.41l4.978,5.364a1.207,1.207,0,0,0,1.766-1.647l-7.106-7.615a1.2,1.2,0,0,0-1.767,0l-7.095,7.615a1.18,1.18,0,0,0-.322.858,1.215,1.215,0,0,0,1.208,1.176,1.261,1.261,0,0,0,.907-.387l5.009-5.362Z" transform="translate(-8409.714 -9451.32)"/></g></g><g class="f" transform="translate(367.5 682)"><circle class="p" cx="7" cy="7" r="7"/><circle class="c" cx="7" cy="7" r="8.5"/></g><text class="b" transform="translate(452.5 735)"><tspan x="0" y="0">Annotate</tspan></text><g transform="translate(445.743 550)"><rect class="c" width="80" height="80" transform="translate(-0.243)"/><g transform="translate(10 10)"><path class="d" d="M35.7,49.324H12.77a10.582,10.582,0,0,0,.643-3.647,10.64,10.64,0,0,0-.373-2.8H35.434a10.682,10.682,0,0,0,.27,6.445ZM6.439,35.7h0A10.679,10.679,0,0,0,0,35.433V13.041a10.641,10.641,0,0,0,2.8.373,10.581,10.581,0,0,0,3.642-.641V35.7Zm35.675-.028h0V12.8a10.588,10.588,0,0,0,3.564.613,10.629,10.629,0,0,0,2.8-.373V35.433a10.682,10.682,0,0,0-6.36.241ZM35.65,6.3H12.823A10.674,10.674,0,0,0,13.04,0H35.432a10.685,10.685,0,0,0,.217,6.294Z" transform="translate(5.661 5.66)"/><path class="e" d="M8.457,0A8.457,8.457,0,1,1,0,8.457,8.457,8.457,0,0,1,8.457,0Z"/><path class="e" d="M8.325,0A8.325,8.325,0,1,1,0,8.325,8.325,8.325,0,0,1,8.325,0Z" transform="translate(0.132 43.013)"/><path class="e" d="M8.457,4.832,8.457,0A8.457,8.457,0,1,1,0,8.457,8.457,8.457,0,0,1,8.457,0Z" transform="translate(42.881)"/><path class="e" d="M8.391,0A8.391,8.391,0,1,1,0,8.391,8.391,8.391,0,0,1,8.391,0Z" transform="translate(42.881 43.013)"/></g></g><g class="f" transform="translate(586.5 682)"><circle class="p" cx="7" cy="7" r="7"/><circle class="c" cx="7" cy="7" r="8.5"/></g><text class="b" transform="translate(562.5 735)"><tspan x="0" y="0">Organize</tspan></text><g transform="translate(554.986 550)"><rect class="c" width="80" height="80" transform="translate(-0.486)"/><g transform="translate(8 14)"><path class="e" d="M57.055,31.035V6.795A4.563,4.563,0,0,0,52.474,2.25H15.828a4.563,4.563,0,0,0-4.581,4.545v24.24a4.563,4.563,0,0,0,4.581,4.545H52.474A4.563,4.563,0,0,0,57.055,31.035ZM26.517,11.34a4.581,4.581,0,1,1-4.581-4.545A4.563,4.563,0,0,1,26.517,11.34ZM17.355,24.975l5.3-5.257a1.152,1.152,0,0,1,1.62,0l3.771,3.742L40.976,10.628a1.152,1.152,0,0,1,1.62,0l8.352,8.287v10.6H17.355Z" transform="translate(7.945 -2.25)"/><path class="d" d="M45.808,43.336v1.515A4.563,4.563,0,0,1,41.227,49.4H4.581A4.563,4.563,0,0,1,0,44.851V20.612a4.563,4.563,0,0,1,4.581-4.545H6.108V35.762c0,3.777,1.622,7.575,7.24,7.575Z" transform="translate(10.775 -7.04)"/><path class="d" d="M45.808,43.336v1.515A4.563,4.563,0,0,1,41.227,49.4H4.581A4.563,4.563,0,0,1,0,44.851V20.612a4.563,4.563,0,0,1,4.581-4.545H6.108V35.762a7.614,7.614,0,0,0,7.635,7.575Z" transform="translate(2 1.92)"/></g></g><g class="g" transform="translate(691.5 677)"><circle class="p" cx="12" cy="12" r="12"/><circle class="c" cx="12" cy="12" r="13.5"/></g><text class="h" transform="translate(685.5 735)"><tspan x="0" y="0">Train</tspan></text><g transform="translate(663.389 550)"><rect class="c" width="80" height="80" transform="translate(0.111)"/><g transform="translate(7 7)"><path class="i" d="M12251.358,9545.262a30.909,30.909,0,1,1,12.066-2.437A30.79,30.79,0,0,1,12251.358,9545.262Zm0-53.915a22.9,22.9,0,1,0,11.356,3,22.926,22.926,0,0,0-11.356-3Z" transform="translate(-12220.111 -9480.457)"/><path class="i" d="M12235.067,9512.913a14.957,14.957,0,1,1,10.576-4.381A14.855,14.855,0,0,1,12235.067,9512.913Zm0-22.365a7.408,7.408,0,1,0,7.409,7.409A7.418,7.418,0,0,0,12235.067,9490.548Z" transform="translate(-12203.791 -9464.131)"/><path class="j" d="M240.493,12.05l-5.747-.732c1.47-2.141-1.48-5.068-3.613-3.612L230.4,1.957A2.23,2.23,0,0,0,227.226.222a40.85,40.85,0,0,0-14.1,11.242,2.234,2.234,0,0,0-.453,1.792c.762,4.249,1.73,5.774,2.523,10.475l-8.1,8.181c-2.081,2.1,1.343,5.515,3.44,3.44l8.181-8.1c4.7.793,6.226,1.761,10.475,2.523a2.234,2.234,0,0,0,1.792-.453,40.848,40.848,0,0,0,11.242-14.1A2.23,2.23,0,0,0,240.493,12.05Z" transform="translate(-177.349 0)"/><path class="k" d="M232.523,52.336a.978.978,0,0,1,.594,1.693C215.55,71.684,227,60.208,209.475,77.907a2.089,2.089,0,0,0-.647,1.515.976.976,0,0,1-1.714.646,2.217,2.217,0,0,1-.016-3.14c25.34-25.6,23.709-23.986,24.034-24.206a2.178,2.178,0,0,1,1.39-.386Z" transform="translate(-177.35 -45.017)"/><path class="i" d="M315.994,81.7l-5.748-.732c-.209.3.755-.681-16.026,15.934,4.7.793,6.226,1.761,10.475,2.523a2.234,2.234,0,0,0,1.792-.453,40.851,40.851,0,0,0,11.242-14.1A2.23,2.23,0,0,0,315.994,81.7Z" transform="translate(-252.85 -69.652)"/><path class="i" d="M269.221,7.706l-.732-5.749A2.23,2.23,0,0,0,265.314.222a40.85,40.85,0,0,0-14.1,11.242,2.234,2.234,0,0,0-.453,1.792c.762,4.249,1.73,5.774,2.523,10.475C269.992,6.859,268.923,7.907,269.221,7.706Z" transform="translate(-215.437 0)"/></g></g><g class="f" transform="translate(478.5 682)"><circle class="p" cx="7" cy="7" r="7"/><circle class="c" cx="7" cy="7" r="8.5"/></g><text class="b" transform="translate(788.5 735)"><tspan x="0" y="0">Deploy</tspan></text><g transform="translate(772.632 550)"><rect class="c" width="80" height="80" transform="translate(-0.132)"/><g transform="translate(11 4)"><path class="e" d="M95.362,351.873H48.141c-6.631,0-7.44-9.907-.764-10.669a5.417,5.417,0,0,1,.86-.026,7.647,7.647,0,0,1,7.183-4.9,7.448,7.448,0,0,1,7.058,6.4,11.264,11.264,0,0,0,5.789-9.962,1.219,1.219,0,0,1,1.223-1.2h4.523a1.219,1.219,0,0,1,1.223,1.2,11.264,11.264,0,0,0,5.789,9.962,7.448,7.448,0,0,1,7.058-6.4,7.646,7.646,0,0,1,7.183,4.9,5.154,5.154,0,0,1,.86.024C102.8,341.966,101.993,351.873,95.362,351.873Z" transform="translate(-42.751 -280.788)"/><g class="l" transform="translate(0 50.732)"><path class="d" d="M301.435,365.334a6.868,6.868,0,0,0-4.081,3.767,1.758,1.758,0,0,1-3.287-1.227,7.443,7.443,0,0,1,6.921-5.276,1.4,1.4,0,0,1,.447,2.737Z" transform="translate(-255.543 -357.841)"/><path class="d" d="M190.515,333.414c-.441,4.685-1.808,7.944-4.1,10.1a1.726,1.726,0,0,1-2.739-.556,1.706,1.706,0,0,1,.344-1.984,11.417,11.417,0,0,0,3.458-8.248,1.219,1.219,0,0,1,1.223-1.2A1.734,1.734,0,0,1,190.515,333.414Z" transform="translate(-161.963 -331.52)"/><path class="d" d="M56.422,365.124a7.689,7.689,0,0,0-5.282,4.1,1.22,1.22,0,0,1-.992.674,4.936,4.936,0,0,0-4.74,4.413,1.226,1.226,0,0,1-2.38.191c-.915-2.9.422-6.513,4.35-6.961a5.3,5.3,0,0,1,.86-.026,7.553,7.553,0,0,1,8.148-4.8A1.225,1.225,0,0,1,56.422,365.124Z" transform="translate(-42.751 -357.854)"/></g><path class="d" d="M346.842,381.431a7.806,7.806,0,0,1,.839,1.567,6.546,6.546,0,0,0-4.713,2.658,1.225,1.225,0,0,1-1.942-1.5,9.4,9.4,0,0,1,4.435-3.207,1.22,1.22,0,0,1,1.381.476Z" transform="translate(-295.167 -322.608)"/><path class="d" d="M85.345,385.508a1.216,1.216,0,0,1-2.028.147,6.545,6.545,0,0,0-4.718-2.667,7.832,7.832,0,0,1,.839-1.567,1.22,1.22,0,0,1,1.372-.48,9.19,9.19,0,0,1,4.454,3.222A1.219,1.219,0,0,1,85.345,385.508Z" transform="translate(-73.114 -322.599)"/><path class="e" d="M8028,9537.724a1.925,1.925,0,0,1-1.923-1.54,13.071,13.071,0,0,0-3.292-6.217,4.554,4.554,0,0,1-.56.188,29.285,29.285,0,0,1-14.825,0,4.133,4.133,0,0,1-.579-.194,13.056,13.056,0,0,0-3.292,6.22,1.973,1.973,0,0,1-3.763.284,18.261,18.261,0,0,1-1.272-8.936,13.008,13.008,0,0,1,4.018-7.9,43.572,43.572,0,0,1,.459-17.642,29.347,29.347,0,0,1,8.791-14.823,4.535,4.535,0,0,1,6.081,0,29.335,29.335,0,0,1,8.792,14.825,43.555,43.555,0,0,1,.458,17.64,13.007,13.007,0,0,1,4.019,7.9,18.242,18.242,0,0,1-1.273,8.936A1.939,1.939,0,0,1,8028,9537.724Zm-13.2-37.8a6.121,6.121,0,1,0,6.121,6.121A6.128,6.128,0,0,0,8014.8,9499.927Z" transform="translate(-7985.803 -9485.921)"/><path class="m" d="M195.38,100.226a1.183,1.183,0,0,1-2.168.81,6.129,6.129,0,0,1,4.631-9.4,1.184,1.184,0,0,1,.738,2.209A6.117,6.117,0,0,0,195.38,100.226Z" transform="translate(-169.365 -77.605)"/><path class="d" d="M174.41,245.627a29.291,29.291,0,0,1-14.824,0,4.5,4.5,0,0,1-3.168-3.054c-.378-1.25-.823-2.883-1.223-4.8a48.306,48.306,0,0,0,23.587,0c-.4,1.914-.848,3.549-1.226,4.8A4.485,4.485,0,0,1,174.41,245.627Z" transform="translate(-137.988 -201.393)"/></g></g><g class="f" transform="translate(803.5 682)"><circle class="p" cx="7" cy="7" r="7"/><circle class="c" cx="7" cy="7" r="8.5"/></g><g transform="translate(663.389 550)"><rect class="c" width="80" height="80" transform="translate(0.111)"/><g transform="translate(7 7)"><path class="d" d="M8142.856,9545.262a30.907,30.907,0,1,1,12.067-2.437A30.788,30.788,0,0,1,8142.856,9545.262Zm0-53.914a22.9,22.9,0,1,0,11.357,3,22.923,22.923,0,0,0-11.357-3Z" transform="translate(-8111.611 -9480.457)"/><path class="d" d="M8126.567,9512.912a14.956,14.956,0,1,1,10.575-4.381A14.854,14.854,0,0,1,8126.567,9512.912Zm0-22.365a7.408,7.408,0,1,0,7.408,7.408A7.417,7.417,0,0,0,8126.567,9490.547Z" transform="translate(-8095.292 -9464.131)"/><path class="n" d="M240.493,12.05l-5.747-.732c1.47-2.141-1.48-5.068-3.613-3.612L230.4,1.957A2.23,2.23,0,0,0,227.226.222a40.85,40.85,0,0,0-14.1,11.242,2.234,2.234,0,0,0-.453,1.792c.762,4.249,1.73,5.774,2.523,10.475l-8.1,8.181c-2.081,2.1,1.343,5.515,3.44,3.44l8.181-8.1c4.7.793,6.226,1.761,10.475,2.523a2.234,2.234,0,0,0,1.792-.453,40.848,40.848,0,0,0,11.242-14.1A2.23,2.23,0,0,0,240.493,12.05Z" transform="translate(-177.349 0)"/><path class="o" d="M232.523,52.336a.978.978,0,0,1,.594,1.693C215.55,71.684,227,60.208,209.475,77.907a2.089,2.089,0,0,0-.647,1.515.976.976,0,0,1-1.714.646,2.217,2.217,0,0,1-.016-3.14c25.34-25.6,23.709-23.986,24.034-24.206a2.178,2.178,0,0,1,1.39-.386Z" transform="translate(-177.35 -45.017)"/><path class="e" d="M315.994,81.7l-5.748-.732c-.209.3.755-.681-16.026,15.934,4.7.793,6.226,1.761,10.475,2.523a2.234,2.234,0,0,0,1.792-.453,40.851,40.851,0,0,0,11.242-14.1A2.23,2.23,0,0,0,315.994,81.7Z" transform="translate(-252.85 -69.652)"/><path class="e" d="M269.221,7.706l-.732-5.749A2.23,2.23,0,0,0,265.314.222a40.85,40.85,0,0,0-14.1,11.242,2.234,2.234,0,0,0-.453,1.792c.762,4.249,1.73,5.774,2.523,10.475C269.992,6.859,268.923,7.907,269.221,7.706Z" transform="translate(-215.437 0)"/></g></g></g></svg>