<svg xmlns="http://www.w3.org/2000/svg" xmlns:xlink="http://www.w3.org/1999/xlink" width="368" height="80" viewBox="0 0 368 80">
  <defs>
    <clipPath id="clip-path">
      <rect id="Rectangle_2106" data-name="Rectangle 2106" width="368" height="80" transform="translate(-12907 -20540)" fill="#fff"/>
    </clipPath>
  </defs>
  <g id="Layerx_logo_purple" transform="translate(12907 20540)" clip-path="url(#clip-path)">
    <g id="Layerx_logo" transform="translate(-930.41 478.595)">
      <g id="Group_3726" data-name="Group 3726" transform="translate(-11976 -21001)">
        <path id="Path_26682" data-name="Path 26682" d="M0,0H24.23a6.549,6.549,0,0,1,6.549,6.549V41.257H6.549A6.549,6.549,0,0,1,0,34.708Z" transform="translate(0 18.336)" fill="#7166f9"/>
        <path id="Path_26683" data-name="Path 26683" d="M0,0H24.23a6.549,6.549,0,0,1,6.549,6.549V41.257H6.549A6.549,6.549,0,0,1,0,34.708Z" transform="translate(14.407 9.168)" fill="#e17cfd" opacity="0.9"/>
        <path id="Path_26684" data-name="Path 26684" d="M0,0H23.575a6.549,6.549,0,0,1,6.549,6.549V41.257H6.549A6.549,6.549,0,0,1,0,34.708Z" transform="translate(29.469 0)" fill="#4cd7f6" opacity="0.911"/>
      </g>
      <path id="Path_25490" data-name="Path 25490" d="M30.45-12.7a3.956,3.956,0,0,1,2.823,1.071,3.621,3.621,0,0,1,1.136,2.758,3.545,3.545,0,0,1-1.136,2.693A3.956,3.956,0,0,1,30.45-5.108H9.359A3.832,3.832,0,0,1,6.536-6.243,3.832,3.832,0,0,1,5.4-9.066v-37.51A3.778,3.778,0,0,1,6.568-49.4a4.105,4.105,0,0,1,2.985-1.136A3.863,3.863,0,0,1,12.344-49.4a3.778,3.778,0,0,1,1.168,2.823V-12.7ZM69.323-40.476a3.782,3.782,0,0,1,2.791,1.1,3.864,3.864,0,0,1,1.1,2.855V-9.066a3.892,3.892,0,0,1-1.1,2.823,3.726,3.726,0,0,1-2.791,1.136,3.675,3.675,0,0,1-2.758-1.1A4.081,4.081,0,0,1,65.429-9a13.317,13.317,0,0,1-4.38,3.212,13.2,13.2,0,0,1-5.808,1.33,14.837,14.837,0,0,1-8.112-2.3,16.152,16.152,0,0,1-5.743-6.392,19.947,19.947,0,0,1-2.109-9.28,20.4,20.4,0,0,1,2.077-9.313,15.956,15.956,0,0,1,5.678-6.425,14.454,14.454,0,0,1,7.95-2.3,15.032,15.032,0,0,1,5.841,1.136,15.338,15.338,0,0,1,4.608,2.888v-.065a3.892,3.892,0,0,1,1.1-2.823A3.726,3.726,0,0,1,69.323-40.476ZM56.214-11.6a8.666,8.666,0,0,0,6.879-3.083,11.446,11.446,0,0,0,2.661-7.755,11.571,11.571,0,0,0-2.661-7.788,8.627,8.627,0,0,0-6.879-3.115A8.559,8.559,0,0,0,49.4-30.222a11.571,11.571,0,0,0-2.661,7.788,11.534,11.534,0,0,0,2.628,7.755A8.57,8.57,0,0,0,56.214-11.6Zm50.424-28.23a3.726,3.726,0,0,1,2.791,1.136,3.892,3.892,0,0,1,1.1,2.823V-8.288q0,8.436-4.543,12.3T93.853,7.872a29.437,29.437,0,0,1-4.51-.357,16.918,16.918,0,0,1-3.732-.941q-3.18-1.363-3.18-3.764a3.334,3.334,0,0,1,.195-1.038A4.022,4.022,0,0,1,83.957-.4,3.222,3.222,0,0,1,86-1.149a3.874,3.874,0,0,1,1.233.195q.454.195,1.59.649a16.362,16.362,0,0,0,2.4.746,11.653,11.653,0,0,0,2.628.292q4.608,0,6.782-1.979t2.174-6.782v-.649Q99.434-4.459,92.3-4.459a11.2,11.2,0,0,1-5.97-1.59A10.737,10.737,0,0,1,82.3-10.462a14.113,14.113,0,0,1-1.428-6.457v-18.95a3.892,3.892,0,0,1,1.1-2.823,3.726,3.726,0,0,1,2.791-1.136,3.726,3.726,0,0,1,2.791,1.136,3.892,3.892,0,0,1,1.1,2.823v16.613q0,4.088,1.785,5.873A7.08,7.08,0,0,0,95.67-11.6a6.8,6.8,0,0,0,5.224-1.979,8.012,8.012,0,0,0,1.85-5.678V-35.868a3.892,3.892,0,0,1,1.1-2.823A3.726,3.726,0,0,1,106.638-39.827Zm43.156,16.549a3.332,3.332,0,0,1-1.233,2.531,4.128,4.128,0,0,1-2.726.973H124.419a9.786,9.786,0,0,0,3.569,6,9.979,9.979,0,0,0,6.295,2.174,13.951,13.951,0,0,0,4.153-.487,10.816,10.816,0,0,0,2.369-1.038q.876-.552,1.2-.746a4.951,4.951,0,0,1,2.206-.584,3.186,3.186,0,0,1,2.336.973,3.113,3.113,0,0,1,.973,2.271,4.05,4.05,0,0,1-1.817,3.18A15.505,15.505,0,0,1,140.838-5.5a19.016,19.016,0,0,1-6.165,1.038,19.141,19.141,0,0,1-9.507-2.271,15.854,15.854,0,0,1-6.262-6.262,18.262,18.262,0,0,1-2.206-8.988,19.9,19.9,0,0,1,2.336-9.8,16.588,16.588,0,0,1,6.165-6.457,15.935,15.935,0,0,1,8.177-2.239,15.16,15.16,0,0,1,8.08,2.336,17.464,17.464,0,0,1,6.068,6.295A16.922,16.922,0,0,1,149.794-23.279ZM133.375-33.337q-7.528,0-8.891,7.074h17v-.454a6.709,6.709,0,0,0-2.661-4.673A8.422,8.422,0,0,0,133.375-33.337Zm40.949-7.139a4.963,4.963,0,0,1,3.277,1.1,3.289,3.289,0,0,1,1.33,2.6,4.02,4.02,0,0,1-1.038,3.018,3.423,3.423,0,0,1-2.466,1.006,6.475,6.475,0,0,1-2.206-.454q-.195-.065-.876-.26a5.293,5.293,0,0,0-1.46-.195,5.767,5.767,0,0,0-3.245,1.038,7.576,7.576,0,0,0-2.563,3.147,11.588,11.588,0,0,0-1.006,5.029v15.38a3.892,3.892,0,0,1-1.1,2.823,3.726,3.726,0,0,1-2.791,1.136,3.726,3.726,0,0,1-2.791-1.136,3.892,3.892,0,0,1-1.1-2.823v-26.8a3.892,3.892,0,0,1,1.1-2.823,3.726,3.726,0,0,1,2.791-1.136,3.726,3.726,0,0,1,2.791,1.136,3.892,3.892,0,0,1,1.1,2.823v.844a9.831,9.831,0,0,1,4.283-4.056A13.168,13.168,0,0,1,174.325-40.476ZM218-11.078a3.893,3.893,0,0,1,.779,2.4,3.582,3.582,0,0,1-1.233,2.791,3.923,3.923,0,0,1-2.661,1.1,3.888,3.888,0,0,1-3.18-1.687l-11.552-15.38L188.926-6.6a3.867,3.867,0,0,1-3.245,1.817,3.369,3.369,0,0,1-2.466-1.038,3.3,3.3,0,0,1-1.038-2.4,4.211,4.211,0,0,1,.973-2.661l12.525-16.938L183.15-44.435a3.609,3.609,0,0,1-.844-2.336,3.712,3.712,0,0,1,1.233-2.791,3.881,3.881,0,0,1,2.726-1.168,3.888,3.888,0,0,1,3.18,1.687l11.422,15.186,11.162-14.861a4.782,4.782,0,0,1,1.493-1.4,3.351,3.351,0,0,1,1.687-.487,3.435,3.435,0,0,1,2.531,1.136,3.519,3.519,0,0,1,1.1,2.5A3.784,3.784,0,0,1,218-44.629L205.345-27.951Zm11.422,5.906a3.908,3.908,0,0,1-2.888-1.006,3.908,3.908,0,0,1-1.006-2.888v-1.1a3.908,3.908,0,0,1,1.006-2.888,3.908,3.908,0,0,1,2.888-1.006h.844a3.908,3.908,0,0,1,2.888,1.006,3.908,3.908,0,0,1,1.006,2.888v1.1a3.908,3.908,0,0,1-1.006,2.888,3.908,3.908,0,0,1-2.888,1.006Zm40.82-35.3a3.782,3.782,0,0,1,2.791,1.1,3.863,3.863,0,0,1,1.1,2.855V-9.066a3.892,3.892,0,0,1-1.1,2.823,3.726,3.726,0,0,1-2.791,1.136,3.675,3.675,0,0,1-2.758-1.1A4.081,4.081,0,0,1,266.347-9a13.317,13.317,0,0,1-4.381,3.212,13.2,13.2,0,0,1-5.808,1.33,14.837,14.837,0,0,1-8.112-2.3,16.152,16.152,0,0,1-5.743-6.392,19.947,19.947,0,0,1-2.109-9.28,20.405,20.405,0,0,1,2.077-9.313,15.956,15.956,0,0,1,5.678-6.425,14.454,14.454,0,0,1,7.95-2.3,15.032,15.032,0,0,1,5.841,1.136,15.338,15.338,0,0,1,4.608,2.888v-.065a3.891,3.891,0,0,1,1.1-2.823A3.726,3.726,0,0,1,270.241-40.476ZM257.132-11.6a8.666,8.666,0,0,0,6.879-3.083,11.446,11.446,0,0,0,2.661-7.755,11.571,11.571,0,0,0-2.661-7.788,8.627,8.627,0,0,0-6.879-3.115,8.559,8.559,0,0,0-6.814,3.115,11.571,11.571,0,0,0-2.661,7.788,11.534,11.534,0,0,0,2.628,7.755A8.57,8.57,0,0,0,257.132-11.6ZM289.9-9.066a3.892,3.892,0,0,1-1.1,2.823,3.726,3.726,0,0,1-2.791,1.136,3.726,3.726,0,0,1-2.791-1.136,3.892,3.892,0,0,1-1.1-2.823v-26.8a3.892,3.892,0,0,1,1.1-2.823,3.726,3.726,0,0,1,2.791-1.136,3.726,3.726,0,0,1,2.791,1.136,3.892,3.892,0,0,1,1.1,2.823Zm-3.959-34.979a5.156,5.156,0,0,1-3.115-.714,3.049,3.049,0,0,1-.909-2.531v-1.233a2.942,2.942,0,0,1,.973-2.531,5.337,5.337,0,0,1,3.115-.714,5.3,5.3,0,0,1,3.18.714,3.049,3.049,0,0,1,.909,2.531v1.233a2.981,2.981,0,0,1-.941,2.563A5.667,5.667,0,0,1,285.946-44.045Z" transform="translate(-11899.279 -20949.234)" fill="#211e39"/>
    </g>
  </g>
</svg>
